<svg width="16" height="16" viewBox="0 0 16 16" fill="none" xmlns="http://www.w3.org/2000/svg">
<path fill-rule="evenodd" clip-rule="evenodd" d="M11.1667 7.33333C11.1667 5.21624 9.45043 3.5 7.33333 3.5C5.21624 3.5 3.5 5.21624 3.5 7.33333C3.5 9.45042 5.21624 11.1667 7.33333 11.1667C9.45043 11.1667 11.1667 9.45042 11.1667 7.33333ZM12.6667 7.33333C12.6667 4.38781 10.2789 2 7.33333 2C4.38781 2 2 4.38781 2 7.33333C2 10.2789 4.38781 12.6667 7.33333 12.6667C10.2789 12.6667 12.6667 10.2789 12.6667 7.33333Z" fill="#0D0D0D"/>
<path fill-rule="evenodd" clip-rule="evenodd" d="M12.803 13.8637L10.4697 11.5303L11.5303 10.4697L13.8637 12.803L12.803 13.8637Z" fill="#0D0D0D"/>
</svg>
