<?xml version="1.0" encoding="UTF-8" standalone="no"?>
<svg width="30px" height="30px" viewBox="0 0 30 30" version="1.1" xmlns="http://www.w3.org/2000/svg" xmlns:xlink="http://www.w3.org/1999/xlink">
    <!-- Generator: Sketch 43.1 (39012) - http://www.bohemiancoding.com/sketch -->
    <title>Mask</title>
    <defs></defs>
    <g id="moonphase-detail" stroke="none" stroke-width="1" fill="none" fill-rule="evenodd">
        <g id="Artboard" transform="translate(-864.000000, -283.000000)" fill="#FFFFFF">
            <path d="M879,312.988235 C870.715729,312.988235 864,306.277774 864,298 C864,289.722226 870.715729,283.011765 879,283.011765 C887.284271,283.011765 894,289.722226 894,298 C894,306.277774 887.284271,312.988235 879,312.988235 Z M881.494512,297.363636 C881.808967,294.751665 884.034556,292.727273 886.733338,292.727273 C889.43212,292.727273 891.657709,294.751665 891.972165,297.363636 L892.35923,297.363636 C892.026817,290.278597 886.172833,284.636364 879,284.636364 C871.827167,284.636364 865.973183,290.278597 865.64077,297.363636 L866.027835,297.363636 C866.342291,294.751665 868.56788,292.727273 871.266662,292.727273 C873.965444,292.727273 876.191033,294.751665 876.505488,297.363636 L877.006128,297.363636 C877.275567,296.52003 878.066381,295.909091 879,295.909091 C879.933619,295.909091 880.724433,296.52003 880.993872,297.363636 L881.494512,297.363636 Z" id="Mask" transform="translate(879.000000, 298.000000) rotate(-360.000000) translate(-879.000000, -298.000000) "></path>
        </g>
    </g>
</svg>