<svg fill="none" xmlns="http://www.w3.org/2000/svg" viewBox="0 0 20 20">
  <path d="M12.5 10 8.75 7.5v5L12.5 10Z" stroke="#fff" stroke-width="1.5" stroke-linecap="round" stroke-linejoin="round"/>
  <path d="M1.875 10c0 2.328.242 3.688.422 4.39a1.258 1.258 0 0 0 .75.852c2.617 1 6.953.977 6.953.977s4.336.023 6.953-.977a1.257 1.257 0 0 0 .75-.851c.18-.704.422-2.063.422-4.391s-.242-3.687-.422-4.39a1.257 1.257 0 0 0-.75-.852C14.336 3.758 10 3.78 10 3.78s-4.336-.023-6.953.977a1.258 1.258 0 0 0-.75.851c-.18.704-.422 2.063-.422 4.391Z" stroke="#fff" stroke-width="1.5" stroke-linecap="round" stroke-linejoin="round"/>
</svg>